HIERARCHY
ROOT root
{
  OFFSET 158.576 82.3997 32.7916
  CHANNELS 6 Xposition Yposition Zposition Zrotation Xrotation Yrotation
  JOINT pelvis
  {
    OFFSET 0 0 0
    CHANNELS 3 Zrotation Xrotation Yrotation
    JOINT thorax
    {
      OFFSET 0 22.7874 -5
      CHANNELS 3 Zrotation Xrotation Yrotation
      JOINT rclavicle
      {
        OFFSET 0 28.1932 0
        CHANNELS 3 Zrotation Xrotation Yrotation
        JOINT rhumerus
        {
          OFFSET -18.7865 5.8498 0
          CHANNELS 3 Zrotation Xrotation Yrotation
          JOINT rradius
          {
            OFFSET -24.717 0 0
            CHANNELS 3 Zrotation Xrotation Yrotation
            JOINT rhand
            {
              OFFSET -24.7363 0 0
              CHANNELS 3 Zrotation Xrotation Yrotation
              End Site
              {
                OFFSET -8.2454 0 0
              }
            }
          }
        }
      }
      JOINT lclavicle
      {
        OFFSET 0 28.1932 0
        CHANNELS 3 Zrotation Xrotation Yrotation
        JOINT lhumerus
        {
          OFFSET 18.7865 5.8498 0
          CHANNELS 3 Zrotation Xrotation Yrotation
          JOINT lradius
          {
            OFFSET 24.717 0 0
            CHANNELS 3 Zrotation Xrotation Yrotation
            JOINT lhand
            {
              OFFSET 24.7363 0 0
              CHANNELS 3 Zrotation Xrotation Yrotation
              End Site
              {
                OFFSET 8.2454 0 0
              }
            }
          }
        }
      }
      JOINT head
      {
        OFFSET 0 35.4281 0
        CHANNELS 3 Zrotation Xrotation Yrotation
        End Site
        {
          OFFSET 0 11.8094 0
        }
      }
    }
    JOINT rfemur
    {
      OFFSET -9.1547 0 0
      CHANNELS 3 Zrotation Xrotation Yrotation
      JOINT rtibia
      {
        OFFSET 0 -43.3327 0
        CHANNELS 3 Zrotation Xrotation Yrotation
        JOINT rfoot
        {
          OFFSET 0 -38.9241 0
          CHANNELS 3 Zrotation Xrotation Yrotation
          JOINT rtoes
          {
            OFFSET 0 0 17.1698
            CHANNELS 3 Zrotation Xrotation Yrotation
            End Site
            {
              OFFSET 0 0 5.7233
            }
          }
        }
      }
    }
    JOINT lfemur
    {
      OFFSET 9.1547 0 0
      CHANNELS 3 Zrotation Xrotation Yrotation
      JOINT ltibia
      {
        OFFSET 0 -43.3327 0
        CHANNELS 3 Zrotation Xrotation Yrotation
        JOINT lfoot
        {
          OFFSET 0 -38.9241 0
          CHANNELS 3 Zrotation Xrotation Yrotation
          JOINT ltoes
          {
            OFFSET 0 0 17.1698
            CHANNELS 3 Zrotation Xrotation Yrotation
            End Site
            {
              OFFSET 0 0 5.7233
            }
          }
        }
      }
    }
  }
}
MOTION
Frames:	9
Frame Time:	0.00833333
-127.504 82.4777 14.2923 0.856579 13.2434 -6.69102 0 0 0 -6.49528 -9.02935 1.23227 32.8228 0 -3.2984 42.4556 10.5872 22.8014 0 0 50.2614 -3.40738 -0.299729 10.0503 -28.0621 0 12.3483 -42.093 -4.41765 9.74032 0 0 -9.9228 1.70882 0.150926 10.0972 2.59221 0.842029 1.69978 -3.57682 6.64681 -15.7696 0 20.4712 0 -0.571278 6.86847 4.51013 -179.462 -86.7785 180 -5.6222 -37.2572 15.9592 0 20.408 0 -0.43764 2.54428 9.73479 0.4422 -3.516 0 
-127.249 82.5816 15.3543 1.38425 13.0704 -6.38805 0 0 0 -7.38425 -9.1018 0.937708 33.2028 0 -3.455 43.1885 10.5684 21.7493 0 0 49.2416 -3.23938 -0.281901 9.94382 -27.9435 0 12.2907 -42.5416 -4.37773 9.42525 0 0 -10.0841 1.48042 0.133224 10.2852 2.86354 1.0653 1.7506 -4.66173 6.2083 -15.8299 0 22.6984 0 -0.706533 8.28259 4.67083 -179.331 -84.7515 180 -6.72786 -36.5807 15.166 0 20.6307 0 -0.40748 2.38883 9.65277 0.4116 -3.0899 0 
-126.994 82.6993 16.4004 1.83969 12.8943 -6.04252 0 0 0 -8.15691 -9.11935 0.635938 33.4988 0 -3.6219 43.9592 10.5108 20.7051 0 0 48.1375 -3.00719 -0.25836 9.8174 -27.8325 0 12.2072 -43.0481 -4.27019 9.09907 0 0 -10.3535 1.18145 0.108648 10.5048 3.06437 1.26187 1.81264 -5.67082 5.67635 -15.8831 0 25.0538 0 -0.853545 9.95763 4.73154 -179.19 -82.936 180 -7.79319 -35.8183 14.2732 0 20.7525 0 -0.353652 2.07968 9.6183 0.3571 -2.8041 0 
-126.74 82.8259 17.4301 2.22829 12.7088 -5.67097 0 0 0 -8.81522 -9.07604 0.339653 33.7168 0 -3.7909 44.7502 10.4096 19.6772 0 0 46.9561 -2.70864 -0.229195 9.67178 -27.7299 0 12.1051 -43.6068 -4.0719 8.76089 0 0 -10.7453 0.807557 0.0760404 10.7549 3.19138 1.42362 1.89188 -6.61477 5.05432 -15.9509 0 27.5334 0 -1.00229 11.8717 4.69259 -179.05 -81.4657 180 -8.80636 -34.9605 13.3167 0 20.7617 0 -0.283801 1.66176 9.6495 0.2864 -2.6662 0 
-126.495 82.9571 18.4348 2.519 12.5366 -5.28639 0 0 0 -9.31076 -8.9982 0.0584189 33.8574 0 -3.951 45.5396 10.2651 18.6672 0 0 45.7053 -2.34482 -0.195082 9.50866 -27.6541 0 11.9914 -44.2019 -3.76368 8.4226 0 0 -11.2805 0.355022 0.0342551 11.032 3.23198 1.54926 1.99713 -7.4422 4.32176 -15.9991 0 30.1095 0 -1.12288 13.9933 4.48578 -178.943 -80.5019 180 -9.69211 -34.0582 12.3908 0 20.7019 0 -0.200231 1.1623 9.71292 0.2018 -2.6516 0 
-126.256 83.0891 19.4173 2.74025 12.3647 -4.91037 0 0 0 -9.68119 -8.87925 -0.199491 33.9391 0 -4.0951 46.3082 10.078 17.6831 0 0 44.3936 -1.92184 -0.156798 9.33034 -27.5977 0 11.8743 -44.8223 -3.32748 8.08432 0 0 -11.9696 -0.172583 -0.0170612 11.3255 3.19739 1.63297 2.13307 -8.19514 3.49083 -16.0532 0 32.7711 0 -1.18955 16.2535 4.11045 -178.891 -80.169 180 -10.4734 -33.0974 11.5229 0 20.55 0 -0.110963 0.633884 9.81531 0.1113 -2.7376 0 
-126.024 83.2192 20.3757 2.8969 12.1992 -4.55947 0 0 0 -9.93211 -8.73256 -0.430187 33.9751 0 -4.216 47.038 9.85221 16.7286 0 0 43.0294 -1.44927 -0.11581 9.14072 -27.5645 0 11.7637 -45.4499 -2.75009 7.74968 0 0 -12.8218 -0.766467 -0.0779685 11.6203 3.0941 1.67464 2.30498 -8.87449 2.55953 -16.1027 0 35.492 0 -1.16062 18.567 3.52045 -178.935 -80.5615 180 -11.1374 -32.1014 10.7645 0 20.3173 0 -0.0206706 0.110617 9.93262 0.0197 -2.884 0 
-125.799 83.3455 21.309 2.99643 12.045 -4.24697 0 0 0 -10.0748 -8.57089 -0.632362 33.979 0 -4.3076 47.7158 9.58998 15.8035 0 0 41.6214 -0.940034 -0.0734955 8.94351 -27.5569 0 11.665 -46.064 -2.03134 7.42539 0 0 -13.8426 -1.41122 -0.147072 11.8969 2.93195 1.67628 2.51598 -9.48323 1.52883 -16.1366 0 38.2446 0 -0.988622 20.8265 2.66793 -179.112 -81.7009 180 -11.6803 -31.0935 10.1575 0 20.0176 0 0.0664171 -0.382654 10.0356 -0.0688 -3.0473 0 
-125.579 83.4673 22.2189 3.05902 11.9001 -3.98365 0 0 0 -10.1365 -8.39868 -0.806955 33.9657 0 -4.3681 48.3327 9.29484 14.9112 0 0 40.176 -0.41195 -0.0315292 8.7442 -27.5718 0 11.5881 -46.646 -1.17273 7.106 0 0 -15.0253 -2.0838 -0.221441 12.1321 2.72641 1.64079 2.76694 -10.0396 0.408706 -16.1514 0 41.0019 0 -0.633337 22.9112 1.52254 -179.454 -83.5193 180 -12.1209 -30.0808 9.71411 0 19.651 0 0.145618 -0.824209 10.1074 -0.1492 -3.1921 0 
